<?xml version="1.0" encoding="UTF-8"?>
<svg width="21px" height="16px" viewBox="0 0 21 16" version="1.1" xmlns="http://www.w3.org/2000/svg" xmlns:xlink="http://www.w3.org/1999/xlink">
    <title>Path</title>
    <g id="Page-1" stroke="none" stroke-width="1" fill="none" fill-rule="evenodd">
        <g id="Arrow-Solid-Black" transform="translate(-27.000000, -30.000000)" fill="#FFFFFF" fill-rule="nonzero">
            <g id="iconspace_Arrow-Right_25px" transform="translate(25.000000, 25.000000)">
                <path d="M20.2581346,12 L13.760351,6.3144428 C13.4486235,6.04168126 13.4170354,5.56785929 13.6897969,5.25613182 C13.9625585,4.94440435 14.4363804,4.91281622 14.7481079,5.18557776 L22.7481079,12.1855778 C23.0896033,12.4843862 23.0896033,13.0156343 22.7481079,13.3144428 L14.7481079,20.3144428 C14.4363804,20.5872043 13.9625585,20.5556162 13.6897969,20.2438887 C13.4170354,19.9321613 13.4486235,19.4583393 13.760351,19.1855778 L20.2581502,13.5 L2.75,13.5 C2.33578644,13.5 2,13.164217 2,12.7500034 C2,12.3357899 2.33578644,12 2.75,12 L20.2581346,12 Z" id="Path"></path>
            </g>
        </g>
    </g>
</svg>