<svg id="Calque_1" data-name="Calque 1" xmlns="http://www.w3.org/2000/svg" xmlns:xlink="http://www.w3.org/1999/xlink" viewBox="0 0 2121.2 2121.2"><defs><style>.cls-1{fill:#fff;}.cls-2{fill:url(#Dégradé_sans_nom);}.cls-3{fill:#1a9dd9;}</style><linearGradient id="Dégradé_sans_nom" x1="3693.73" y1="450.99" x2="3031.74" y2="2179.09" gradientTransform="matrix(1, 0, 0, -1, 0, 2027.26)" gradientUnits="userSpaceOnUse"><stop offset="0" stop-color="#1a9dd9"/><stop offset="0.14" stop-color="#1c9ec6"/><stop offset="0.34" stop-color="#219eac"/><stop offset="0.53" stop-color="#249e96"/><stop offset="0.71" stop-color="#279e86"/><stop offset="0.87" stop-color="#299e7b"/><stop offset="1" stop-color="#299e78"/></linearGradient></defs><circle class="cls-1" cx="1060.6" cy="1060.6" r="1060.6"/><path class="cls-2" d="M4020,1502.9c-22.7,22.5-33.5,35-50.3,49.4-13.9,12-24.7,20-42.1,32.8-21.3,15.7-35,25.9-54.3,37.4a492.7,492.7,0,0,1-56,28.3s-56.7,24.5-120.5,37.9c-149.2,31.3-295.2,21.6-400.4-.4-144-30.1-267.6-64.3-438.5-202.1s-290-395.2-290-623c0-271.7,82.4-515.1,312.5-700.6C3196-91.7,3598-98.9,3822.5-7.9c153,62,230.1,166,242.4,188.2,13.2,23.8-.3,39.7-21.3,35.1-78.2-33.7-155.2-71.2-248.7-81-395.3-41.3-743,144.6-798.1,551-36.3,267.9,105.1,468,268.5,543.6.1.1,45.6,22.3,64.5,29.1,24.2,8.7,47.1,16.6,71.9,21.6s53.5,9.6,78.6,12.6,50.2,4.8,75.6,5.5a693,693,0,0,0,76.2-1.9,582.6,582.6,0,0,0,76.2-10.9,473.5,473.5,0,0,0,74.7-22.2,389.1,389.1,0,0,0,70.3-36.1,354.1,354.1,0,0,0,32.1-23.7,342.8,342.8,0,0,0,29.2-27.2c4.6-4.8,9.1-9.8,13.5-14.8s8.6-10.4,12.6-15.9c2.1-2.7,4-5.6,6-8.4s3.8-5.7,5.6-8.7c3.7-5.9,7.1-11.9,10.3-18.2a207.2,207.2,0,0,0,22.4-81.5,303.2,303.2,0,0,0-.2-40.5c-.8-12.9-2-25-2.2-35.6-.1-2.6-.1-5.2,0-7.6s.2-4.7.5-6.8a38.6,38.6,0,0,1,2.5-10.5,30.2,30.2,0,0,1,4.6-7.7l1.7-1.9.9-.9.9-.8a34.7,34.7,0,0,1,3.8-2.9,27.6,27.6,0,0,1,8.4-3.7,36.7,36.7,0,0,1,10.2-1.1c7.4.2,16.1,2.3,24.9,6.1a135,135,0,0,1,25.9,15.1,197.9,197.9,0,0,1,24.1,21.1,268.2,268.2,0,0,1,39.8,53,333.4,333.4,0,0,1,42.2,127.6,350,350,0,0,1,1.4,67.9,368.6,368.6,0,0,1-11.5,67.3,470.9,470.9,0,0,1-55.1,127,551.5,551.5,0,0,1-40.5,57.1A572.1,572.1,0,0,1,4020,1502.9Z" transform="translate(-2440.4 227.3)"/><path class="cls-3" d="M4403.7,976.6c-.6,308.9-183.3,521-427.4,630.7a765,765,0,0,0,77.6-65.2c36.7-35.4,69.9-75,97.3-118.8a539.6,539.6,0,0,0,36.5-68.4,512.2,512.2,0,0,0,26.1-73.4,421.8,421.8,0,0,0,13.7-77.6,402.2,402.2,0,0,0-1.3-79.1c-6.1-52.5-22.5-104-49.3-150.2a326.6,326.6,0,0,0-48.5-64.4,255.2,255.2,0,0,0-31.2-27.3,189.6,189.6,0,0,0-37.6-21.8,137.2,137.2,0,0,0-21.9-7.3,113.1,113.1,0,0,0-24.4-3.3,95.8,95.8,0,0,0-26.3,3,87.3,87.3,0,0,0-25.2,11.1,81.3,81.3,0,0,0-10.8,8.3l-2.5,2.3-2.4,2.3c-1.5,1.6-3,3.2-4.4,5a85.4,85.4,0,0,0-14.2,23.8,98.2,98.2,0,0,0-6.1,25.2c-.5,4-.7,7.8-.8,11.6s-.1,7.3,0,10.8c.4,13.9,1.7,26.2,2.5,37.8a245.6,245.6,0,0,1,.4,33.1,149,149,0,0,1-4.9,30.7,157,157,0,0,1-11,29c-9.4,18.8-22.6,36.4-38.1,52.8a294.4,294.4,0,0,1-24.3,23.2,314.1,314.1,0,0,1-26.8,20.3,337.2,337.2,0,0,1-60,31.8,420.8,420.8,0,0,1-65.9,20.8,563.8,563.8,0,0,1-89.2,12.8c60.8-20.4,118.4-64.9,159.8-121.6,91.4-115.3,82.1-289-50.7-324.1-85.1-27.8-163.5,33.4-188.7-7.8-10.5-17.2,12.7-87.5,80.8-156.7C3888.9,362.3,4404.5,579.6,4403.7,976.6Z" transform="translate(-2440.4 227.3)"/></svg>