<?xml version="1.0" encoding="utf-8"?>
<!-- Generator: Adobe Illustrator 25.4.0, SVG Export Plug-In . SVG Version: 6.00 Build 0)  -->
<svg version="1.1" id="Calque_1" xmlns="http://www.w3.org/2000/svg" xmlns:xlink="http://www.w3.org/1999/xlink" x="0px" y="0px"
	 viewBox="0 0 2700.8 2521.5" style="enable-background:new 0 0 2700.8 2521.5;" xml:space="preserve">
<style type="text/css">
	.st0{fill:url(#SVGID_1_);}
	.st1{fill:#1A9DD9;}
	.st2{fill:#009FE3;}
</style>
<g>
	<linearGradient id="SVGID_1_" gradientUnits="userSpaceOnUse" x1="1548.6233" y1="1705.7908" x2="886.6414" y2="-22.3092">
		<stop  offset="0" style="stop-color:#1A9DD9"/>
		<stop  offset="0.1408" style="stop-color:#1C9EC6"/>
		<stop  offset="0.3393" style="stop-color:#219EAC"/>
		<stop  offset="0.5302" style="stop-color:#249E96"/>
		<stop  offset="0.7088" style="stop-color:#279E86"/>
		<stop  offset="0.8704" style="stop-color:#299E7B"/>
		<stop  offset="1" style="stop-color:#299E78"/>
	</linearGradient>
	<path class="st0" d="M1874.9,1632.4c-22.7,22.5-33.5,35-50.3,49.4c-13.9,12-24.7,20-42.1,32.8c-21.3,15.7-35,25.9-54.3,37.4
		c-5.4,3.2-25.7,15.2-56,28.3c0,0-56.7,24.5-120.5,37.9c-149.2,31.3-295.2,21.6-400.4-0.4c-144-30.1-267.6-64.3-438.5-202.1
		c-171-137.9-290-395.2-290-623c0-271.7,82.4-515.1,312.5-700.6c315.6-254.3,717.6-261.5,942.1-170.5c153,62,230.1,166,242.4,188.2
		c13.2,23.8-0.3,39.7-21.3,35.1c-78.2-33.7-155.2-71.2-248.7-81c-395.3-41.3-743,144.6-798.1,551c-36.3,267.9,105.1,468,268.5,543.6
		c0.1,0.1,45.6,22.3,64.5,29.1c24.2,8.7,47.1,16.6,71.9,21.6c24.7,5,53.5,9.6,78.6,12.6c25,2.9,50.2,4.8,75.6,5.5
		c25.3,0.7,50.8,0.2,76.2-1.9c25.5-2,50.9-5.5,76.2-10.9c25.3-5.4,50.3-12.6,74.7-22.2c24.4-9.6,48.1-21.6,70.3-36.1
		c11.1-7.3,21.9-15.2,32.1-23.7c10.3-8.5,20.1-17.7,29.2-27.2c4.6-4.8,9.1-9.8,13.5-14.8c4.3-5.2,8.6-10.4,12.6-15.9
		c2.1-2.7,4-5.6,6-8.4c1.9-2.9,3.8-5.7,5.6-8.7c3.7-5.9,7.1-11.9,10.3-18.2c6.4-12.5,11.6-25.8,15.4-39.6c3.8-13.8,6.1-27.9,7-41.9
		c1-13.9,0.6-27.6-0.2-40.5c-0.8-12.9-2-25-2.2-35.6c-0.1-2.6-0.1-5.2,0-7.6c0.1-2.4,0.2-4.7,0.5-6.8c0.5-4.2,1.3-7.7,2.5-10.5
		c1.2-2.9,2.6-5.2,4.6-7.7c0.5-0.6,1.1-1.3,1.7-1.9l0.9-0.9l0.9-0.8c1.2-1.1,2.5-2,3.8-2.9c2.6-1.7,5.3-2.9,8.4-3.7
		c3.1-0.8,6.5-1.2,10.2-1.1c7.4,0.2,16.1,2.3,24.9,6.1c8.7,3.8,17.5,8.9,25.9,15.1c8.4,6.2,16.5,13.3,24.1,21.1
		c15.2,15.6,28.6,33.6,39.8,53c22.5,38.8,36.9,82.7,42.2,127.6c2.7,22.5,3.1,45.2,1.4,67.9c-1.7,22.7-5.6,45.1-11.5,67.3
		c-11.8,44.6-30.6,87.4-55.1,127c-12.2,19.8-25.8,38.9-40.5,57.1C1907.6,1598.5,1891.7,1615.8,1874.9,1632.4z"/>
	<path class="st1" d="M2258.6,1106.1c-0.6,308.9-183.3,521-427.4,630.7c27.2-20,53.2-41.7,77.6-65.2c36.7-35.4,69.9-75,97.3-118.8
		c13.7-21.8,26-44.7,36.5-68.4c10.5-23.7,19.3-48.3,26.1-73.4c6.9-25.2,11.6-51.3,13.7-77.6c2.2-26.3,1.7-52.8-1.3-79.1
		c-6.1-52.5-22.5-104-49.3-150.2c-13.4-23.1-29.4-44.8-48.5-64.4c-9.6-9.8-19.9-19-31.2-27.3c-11.4-8.3-23.7-15.9-37.6-21.8
		c-6.9-2.9-14.2-5.5-21.9-7.3c-7.7-1.9-15.9-3.1-24.4-3.3c-8.5-0.2-17.5,0.7-26.3,3c-8.8,2.3-17.5,6.1-25.2,11.1
		c-3.9,2.5-7.5,5.3-10.8,8.3l-2.5,2.3c-0.8,0.8-1.6,1.6-2.4,2.3c-1.5,1.6-3,3.2-4.4,5c-5.9,6.9-10.8,15.2-14.2,23.8
		c-3.4,8.6-5.2,17.2-6.1,25.2c-0.5,4-0.7,7.8-0.8,11.6c-0.1,3.7-0.1,7.3,0,10.8c0.4,13.9,1.7,26.2,2.5,37.8
		c0.8,11.6,1.1,22.5,0.4,33.1c-0.6,10.6-2.2,20.7-4.9,30.7c-2.7,9.9-6.3,19.6-11,29c-9.4,18.8-22.6,36.4-38.1,52.8
		c-7.8,8.3-15.8,16-24.3,23.2c-8.5,7.2-17.5,14-26.8,20.3c-18.7,12.6-38.9,23.1-60,31.8c-21.1,8.7-43.3,15.6-65.9,20.8
		c-29.1,6.7-59,10.8-89.2,12.8c60.8-20.4,118.4-64.9,159.8-121.6c91.4-115.3,82.1-289-50.7-324.1c-85.1-27.8-163.5,33.4-188.7-7.8
		c-10.5-17.2,12.7-87.5,80.8-156.7C1743.8,491.8,2259.4,709.1,2258.6,1106.1z"/>
</g>
<g>
	<path class="st2" d="M289.4,2391.4c12.8,0,24.6-0.6,35.3-1.8c10.7-1.2,20.8-2.9,30.3-5.3c9.5-2.3,18.4-5.2,26.8-8.5
		c8.4-3.3,16.8-7.1,25.2-11.4v-101.1h-73.5c-4.2,0-7.6-1.2-10.1-3.5c-2.5-2.3-3.8-5.2-3.8-8.6v-35.2h145.7v175.9
		c-11.9,8.3-24.3,15.6-37.3,21.7c-12.9,6.2-26.7,11.4-41.4,15.5c-14.7,4.2-30.4,7.2-47.2,9.3c-16.8,2-35,3-54.6,3
		c-34.4,0-66-5.7-94.7-17.1c-28.7-11.4-53.4-27.4-74.2-48c-20.8-20.6-36.9-45.3-48.5-74s-17.4-60.4-17.4-95c0-35,5.7-66.8,17.1-95.6
		c11.4-28.8,27.6-53.5,48.7-74c21.1-20.6,46.6-36.5,76.5-47.8c29.9-11.3,63.4-16.9,100.5-16.9c18.8,0,36.2,1.3,52.3,4
		c16.1,2.7,31.1,6.5,44.9,11.5c13.8,5,26.5,11.1,38.2,18.2c11.7,7.1,22.6,15.2,32.8,24.1l-18.2,28.1c-3.8,5.8-8.6,8.6-14.6,8.6
		c-3.5,0-7.4-1.2-11.6-3.5c-5.5-3-11.7-6.6-18.5-10.9c-6.8-4.3-15.2-8.4-25-12.3c-9.8-3.9-21.4-7.3-34.8-10.1
		c-13.4-2.8-29.2-4.2-47.5-4.2c-26.7,0-50.9,4.2-72.5,12.6c-21.6,8.4-40.1,20.5-55.3,36.1c-15.2,15.7-26.9,34.6-35.1,56.9
		c-8.2,22.3-12.3,47.3-12.3,75c0,29,4.2,54.8,12.8,77.5c8.5,22.7,20.5,41.9,35.9,57.7c15.5,15.8,33.8,27.8,55,36.1
		C240.4,2387.3,263.8,2391.4,289.4,2391.4z"/>
	<path class="st2" d="M856.3,1978.3v50.5H628.5V2181H813v48.6H628.5V2386h227.8v50.5H563.9v-458.3H856.3z"/>
	<path class="st2" d="M1019.3,2245.3v191.2h-63.9v-458.3h134.1c30,0,56,2.9,77.8,8.8c21.9,5.9,39.9,14.3,54.1,25.4
		c14.2,11.1,24.8,24.5,31.6,40.1c6.8,15.7,10.3,33.2,10.3,52.6c0,16.2-2.6,31.3-7.9,45.4s-13,26.7-23,37.9
		c-10,11.2-22.3,20.7-36.8,28.6c-14.5,7.9-30.9,13.9-49.2,17.9c7.9,4.5,15,11,21.2,19.5l138.4,182h-57c-11.7,0-20.3-4.4-25.8-13.1
		l-123.2-163.7c-3.8-5.1-7.8-8.8-12.3-11c-4.4-2.2-11-3.4-19.9-3.4H1019.3z M1019.3,2200.2h67.2c18.8,0,35.3-2.2,49.5-6.6
		c14.2-4.4,26.2-10.6,35.8-18.5c9.6-8,16.8-17.5,21.7-28.6c4.9-11.1,7.3-23.3,7.3-36.8c0-27.3-9.3-47.9-28-61.7
		c-18.7-13.9-46.4-20.8-83.3-20.8h-70.2V2200.2z"/>
	<path class="st2" d="M1667.7,1978.3v50.5h-227.8V2181h184.5v48.6h-184.5V2386h227.8v50.5h-292.4v-458.3H1667.7z"/>
	<path class="st2" d="M2094.5,2341.9c3.5,0,6.7,1.4,9.6,4.2l25.2,26.5c-19.4,21.7-43,38.7-70.7,50.8
		c-27.7,12.2-61.1,18.2-100.2,18.2c-34.2,0-65.2-5.7-93.1-17.1c-27.8-11.4-51.6-27.4-71.2-48c-19.7-20.6-34.9-45.3-45.7-74
		c-10.8-28.8-16.2-60.4-16.2-95s5.8-66.2,17.4-95c11.6-28.8,27.9-53.5,48.8-74.2c21-20.7,46.1-36.7,75.3-48.1
		c29.3-11.4,61.5-17.1,96.9-17.1c34.9,0,65,5.2,90.2,15.7c25.3,10.4,47.7,24.6,67.4,42.5l-20.9,28.5c-1.5,2.1-3.3,3.9-5.3,5.3
		c-2,1.4-4.9,2.1-8.6,2.1c-2.9,0-5.9-1-9.1-3c-3.2-2-7-4.5-11.4-7.5c-4.4-3-9.6-6.2-15.6-9.6c-6-3.4-13-6.6-21.2-9.6
		c-8.2-3-17.7-5.5-28.5-7.5c-10.8-2-23.3-3-37.4-3c-25.4,0-48.6,4.2-69.7,12.6c-21.1,8.4-39.2,20.4-54.5,36
		c-15.2,15.6-27.1,34.5-35.6,56.9c-8.5,22.4-12.8,47.4-12.8,75.2c0,28.6,4.2,54,12.8,76.4c8.5,22.4,20.1,41.3,34.8,56.8
		c14.7,15.5,32.1,27.2,52.2,35.3c20.1,8.1,41.7,12.2,64.9,12.2c14.1,0,26.8-0.8,38.1-2.4c11.3-1.6,21.7-4.1,31.3-7.5
		c9.6-3.4,18.5-7.7,26.8-13c8.3-5.2,16.6-11.5,25-18.7C2087.4,2343.5,2091,2341.9,2094.5,2341.9z"/>
	<path class="st2" d="M2654.5,2207.6c0,34.3-5.6,65.8-16.9,94.5c-11.3,28.7-27.2,53.4-47.7,74c-20.5,20.7-45.2,36.7-74,48.1
		c-28.8,11.4-60.7,17.1-95.5,17.1c-34.9,0-66.7-5.7-95.4-17.1c-28.7-11.4-53.3-27.4-73.8-48.1c-20.5-20.7-36.4-45.4-47.7-74
		c-11.3-28.7-16.9-60.2-16.9-94.5c0-34.3,5.6-65.8,16.9-94.5c11.3-28.7,27.2-53.4,47.7-74.2c20.5-20.8,45.1-36.9,73.8-48.4
		c28.7-11.5,60.5-17.3,95.4-17.3c34.9,0,66.7,5.8,95.5,17.3c28.8,11.5,53.5,27.7,74,48.4s36.4,45.5,47.7,74.2
		C2648.9,2141.7,2654.5,2173.2,2654.5,2207.6z M2588.6,2207.6c0-28.1-4-53.4-11.9-75.8c-7.9-22.4-19.2-41.3-33.8-56.8
		c-14.6-15.5-32.2-27.3-53-35.7c-20.8-8.3-43.9-12.5-69.5-12.5c-25.4,0-48.5,4.2-69.2,12.5c-20.8,8.3-38.5,20.2-53.2,35.7
		c-14.7,15.5-26,34.4-33.9,56.8c-7.9,22.4-11.9,47.6-11.9,75.8c0,28.1,4,53.4,11.9,75.6c7.9,22.3,19.3,41.1,33.9,56.6
		c14.7,15.5,32.4,27.3,53.2,35.5c20.8,8.2,43.8,12.3,69.2,12.3c25.6,0,48.8-4.1,69.5-12.3c20.7-8.2,38.4-20,53-35.5
		c14.6-15.5,25.8-34.3,33.8-56.6C2584.7,2260.9,2588.6,2235.7,2588.6,2207.6z"/>
</g>
</svg>
